<svg xmlns="http://www.w3.org/2000/svg" xmlns:xlink="http://www.w3.org/1999/xlink" id="Layer_1" x="0px" y="0px" width="200px" height="200px" viewBox="0 0 200 200" xml:space="preserve"><g>	<path fill="#296CE6" d="M122.048,151.063c-0.249,0.156-0.385,0.242-0.385,0.242s-5.438,9.643-8.974,15.907  s-6.498,10.272-4.183,12.491c2.662,2.55,18.839-4.055,22.461-5.073c2.224-0.625,5.791-2.521,7.947-3.624  C134.561,157.25,125.125,152.334,122.048,151.063z"></path>	<path fill="#296CE6" d="M161.639,125.402c-9.111,6.24-22.041,14.541-30.703,20.045c11.846,5.824,16.142,16.185,17.195,20.015  c8.537-6.024,22.207-16.146,29.617-21.907C188.762,134.986,176.523,115.205,161.639,125.402z"></path></g><path fill="#296CE6" d="M112.993,145.088l-0.095-0.046l0.188-0.12l0.035-0.214l5.174-3.397h0.001l5.641-3.434 c8.377-5.32,19.867-12.627,28.599-18.542c0.396-7.95,0.424-16.927,0.679-26.807c-0.715-27.666,0.371-48.572-9.918-58.122 c-9.55-10.289-30.473-9.194-58.141-9.909c-27.667,0.714-48.591-0.366-58.141,9.922c-10.289,9.55-9.203,30.477-9.918,58.143 c0.715,27.667-0.371,48.592,9.918,58.143c9.55,10.288,30.474,9.203,58.141,9.918c6.875-0.178,13.332-0.244,19.303-0.4 L112.993,145.088z M53.137,132.542c-3.977-1.021-4.485-0.918-10.909-5.407c-8.468-4.689-3.365-14.686,2.851-12.643 c6.223,2.037,4.379,7.035,17.327,7.953C75.357,123.363,78,117.857,78,117.857v-9.281c-16,3.292-33.613-2.374-41.341-9.716 c-7.728-7.342-1.016-15.168,4.081-12.922c5.103,2.245,1.96,5.813,13.891,9.587C66.563,99.294,78,96.541,78,96.541V83.185 l-0.146,0.153C63.99,86.195,46.222,78.364,41.327,71.23c-4.895-7.14,0.046-15.179,4.121-14.671c4.387,0.153,4.915,2.251,5.527,3.879 c0,2.857-0.446,5.843,7.686,9.006c5.323,1.604,3.282,1.658,7.974,2.368C71.322,72.526,78,71.456,78,71.456V58.099 c0-4.057,3.396-7.342,7.453-7.342c2.031,0,3.97,0.82,5.297,2.147c1.328,1.328,2.25,3.163,2.25,5.195v13.356 c0,0,6.744,1.071,11.443,0.355c4.699-0.71,2.736-0.765,8.072-2.368c8.143-3.163,7.678-6.148,7.678-9.006 c0.613-1.627,1.121-3.726,5.514-3.879c4.081-0.508,8.998,7.531,4.098,14.671c-4.902,7.134-22.703,14.966-36.593,12.108L93,83.185 v13.657c0-0.196,0.467-0.3,0.467-0.3s11.395,2.753,23.209-1.016c11.82-3.775,8.78-7.342,13.828-9.587 c5.053-2.246,11.637,5.58,3.989,12.922c-7.653,7.342-25.263,13.008-41.022,9.716c-0.178-0.036-0.471-0.073-0.471-0.11v9.691 l0.186-0.301c0,0,2.73,5.508,15.683,4.59s11.203-5.916,17.426-7.954c6.225-2.043,11.313,7.954,2.854,12.642 c-6.426,4.49-6.941,4.387-10.92,5.408c-3.957,1.01-19.329,5.563-32.545-4.648C72.466,138.104,57.096,133.553,53.137,132.542z"></path></svg>