<svg xmlns="http://www.w3.org/2000/svg" xmlns:xlink="http://www.w3.org/1999/xlink" id="Layer_1" x="0px" y="0px" width="960px" height="560px" viewBox="0 0 960 560" xml:space="preserve"><g>	<path fill="#FFFFFF" d="M231.593,342.449c-0.541,0.339-0.833,0.522-0.833,0.522s-11.774,20.871-19.422,34.433  c-7.651,13.562-14.066,22.235-9.051,27.038c5.762,5.518,40.775-8.775,48.615-10.98c4.813-1.354,12.533-5.455,17.203-7.845  C258.675,355.843,238.252,345.202,231.593,342.449z"></path>	<path fill="#FFFFFF" d="M317.284,286.908c-19.72,13.508-47.704,31.477-66.455,43.389c25.638,12.606,34.938,35.029,37.22,43.32  c18.478-13.039,48.067-34.944,64.107-47.421C375.995,307.655,349.508,264.836,317.284,286.908z"></path></g><path fill="#FFFFFF" d="M211.995,329.519l-0.206-0.101l0.41-0.26l0.077-0.632L223.473,321h0.003l12.209-7.261 c18.128-11.518,43-27.245,61.899-40.049c0.857-17.208,0.917-36.594,1.469-57.98c-1.547-59.883,0.803-105.113-21.466-125.783 c-20.672-22.27-65.96-19.891-125.847-21.438C91.857,70.037,46.567,67.704,25.896,89.973c-22.269,20.671-19.92,65.97-21.467,125.854 c1.547,59.885-0.802,105.18,21.467,125.851c20.671,22.269,65.961,19.92,125.845,21.467c14.88-0.384,28.856-0.527,41.78-0.866 L211.995,329.519z M82.435,302.362c-8.608-2.212-9.708-1.986-23.613-11.707c-18.329-10.145-7.284-31.784,6.171-27.361 c13.468,4.41,9.854,15.23,37.877,17.216c28.036,1.986,34.129-9.933,34.129-9.933v-20.09c-35,7.125-73.131-5.138-89.857-21.03 c-16.726-15.892-2.384-32.831,8.647-27.97c11.045,4.86,4.523,12.581,30.348,20.752c25.825,8.158,50.862,2.198,50.862,2.198v-28.91 l-0.689,0.331c-30.01,6.185-68.654-10.767-79.249-26.208c-10.595-15.455,0.006-32.856,8.827-31.757 c9.496,0.331,10.591,4.873,11.916,8.396c0,6.185-0.989,12.647,16.612,19.494c11.522,3.47,7.466,3.589,17.624,5.125 c10.145,1.549,24.961-0.768,24.961-0.768V141.23c0-8.78,6.979-15.892,15.758-15.892c4.397,0,8.546,1.774,11.419,4.648 S169,136.833,169,141.23v28.911c0,0,14.458,2.317,24.628,0.768c10.172-1.537,5.853-1.655,17.401-5.125 c17.628-6.847,16.587-13.309,16.587-19.494c1.324-3.523,2.406-8.065,11.915-8.396c8.833-1.099,19.467,16.302,8.858,31.757 c-10.607,15.442-49.004,32.393-79.067,26.208L169,195.528v29.56c0-0.424,0.871-0.649,0.871-0.649s24.591,5.959,50.166-2.198 c25.585-8.171,18.969-15.892,29.895-20.752c10.938-4.86,25.172,12.078,8.618,27.97c-16.567,15.892-54.548,28.155-88.663,21.03 c-0.384-0.079-0.886-0.159-0.886-0.238v20.978l0.262-0.649c0,0,5.839,11.919,33.874,9.933c28.038-1.986,24.215-12.806,37.684-17.216 c13.47-4.423,24.47,17.216,6.156,27.361c-13.906,9.721-15.034,9.495-23.643,11.707c-8.568,2.186-41.843,12.038-70.45-10.064 C124.278,314.4,91.004,304.548,82.435,302.362z"></path><g>	<path fill="#FFFFFF" d="M433.619,188.003h-11.442v19.706h-20.977v-74.163h33.903c6.709,0,12.536,1.112,17.481,3.337  c4.943,2.226,8.757,5.403,11.442,9.535c2.684,4.132,4.026,8.99,4.026,14.568c0,5.368-1.255,10.049-3.761,14.039  c-2.508,3.991-6.092,7.116-10.754,9.376l15.998,23.308h-22.46L433.619,188.003z M443.578,152.934  c-2.19-1.906-5.439-2.859-9.747-2.859h-11.655v21.718h11.655c4.307,0,7.557-0.935,9.747-2.808c2.188-1.87,3.285-4.537,3.285-7.999  C446.862,157.526,445.766,154.841,443.578,152.934z"></path>	<path fill="#FFFFFF" d="M529.287,193.3h-31.36l-5.826,14.409h-21.402l32.737-74.163h20.661l32.843,74.163h-21.825L529.287,193.3z   M523.144,177.832l-9.537-23.733l-9.534,23.733H523.144z"></path>	<path fill="#FFFFFF" d="M562.873,133.546h20.978v74.163h-20.978V133.546z"></path>	<path fill="#FFFFFF" d="M615.05,204.213c-6.251-3.32-11.161-7.91-14.727-13.773c-3.567-5.861-5.351-12.465-5.351-19.812  c0-7.345,1.783-13.948,5.351-19.812c3.565-5.863,8.476-10.453,14.727-13.774c6.251-3.318,13.296-4.979,21.137-4.979  c7.84,0,14.886,1.661,21.136,4.979c6.251,3.321,11.16,7.911,14.727,13.774c3.566,5.864,5.351,12.467,5.351,19.812  c0,7.347-1.784,13.951-5.351,19.812c-3.566,5.864-8.476,10.454-14.727,13.773c-6.25,3.32-13.296,4.979-21.136,4.979  C628.346,209.192,621.301,207.533,615.05,204.213z M646.356,189.168c3.037-1.764,5.438-4.255,7.205-7.469  c1.766-3.214,2.648-6.904,2.648-11.072c0-4.167-0.883-7.857-2.648-11.072c-1.767-3.212-4.168-5.702-7.205-7.469  c-3.036-1.764-6.428-2.648-10.17-2.648c-3.744,0-7.136,0.885-10.171,2.648c-3.038,1.767-5.439,4.256-7.205,7.469  c-1.766,3.215-2.648,6.905-2.648,11.072c0,4.168,0.883,7.858,2.648,11.072s4.167,5.705,7.205,7.469  c3.035,1.767,6.427,2.648,10.171,2.648C639.929,191.816,643.32,190.935,646.356,189.168z"></path>	<path fill="#FFFFFF" d="M686.299,169.78h30.937v15.468h-30.937V169.78z"></path>	<path fill="#FFFFFF" d="M774.128,207.708l-15.362-22.991l-15.15,22.991h-23.944l27.017-37.505l-25.852-36.657h23.626l14.833,21.401  l14.621-21.401h22.672l-25.85,35.81l27.546,38.353H774.128z"></path></g><g>	<path fill="#FFFFFF" d="M433.619,293.055h-11.442v19.706h-20.977v-74.163h33.903c6.709,0,12.536,1.112,17.481,3.337  c4.943,2.226,8.757,5.403,11.442,9.535c2.684,4.132,4.026,8.99,4.026,14.568c0,5.368-1.255,10.049-3.761,14.039  c-2.508,3.991-6.092,7.115-10.754,9.376l15.998,23.309h-22.46L433.619,293.055z M443.578,257.985  c-2.19-1.906-5.439-2.859-9.747-2.859h-11.655v21.718h11.655c4.307,0,7.557-0.935,9.747-2.808c2.188-1.87,3.285-4.537,3.285-7.999  C446.862,262.578,445.766,259.893,443.578,257.985z"></path>	<path fill="#FFFFFF" d="M539.142,296.55v16.211h-59.543v-74.163h58.164v16.21h-37.399v12.501h32.95v15.68h-32.95v13.562H539.142z"></path>	<path fill="#FFFFFF" d="M550.794,238.598h35.069c8.121,0,15.325,1.52,21.613,4.556c6.285,3.037,11.158,7.346,14.62,12.925  c3.46,5.581,5.191,12.114,5.191,19.6c0,7.487-1.731,14.022-5.191,19.6c-3.462,5.58-8.335,9.89-14.62,12.925  c-6.288,3.038-13.492,4.557-21.613,4.557h-35.069V238.598z M585.015,296.021c6.357,0,11.458-1.802,15.31-5.403  c3.849-3.604,5.774-8.583,5.774-14.939c0-6.357-1.926-11.336-5.774-14.939c-3.852-3.602-8.952-5.403-15.31-5.403h-13.243v40.685  H585.015z"></path>	<path fill="#FFFFFF" d="M686.935,298.352h-31.359l-5.827,14.409h-21.402l32.737-74.163h20.661l32.843,74.163h-21.825  L686.935,298.352z M680.791,282.884l-9.536-23.733l-9.535,23.733H680.791z"></path>	<path fill="#FFFFFF" d="M735.511,309.317c-6.181-3.285-11.035-7.856-14.567-13.721c-3.532-5.862-5.297-12.502-5.297-19.917  c0-7.416,1.765-14.054,5.297-19.918c3.532-5.861,8.387-10.436,14.567-13.72c6.181-3.284,13.154-4.926,20.925-4.926  c6.78,0,12.89,1.202,18.33,3.602c5.437,2.403,9.958,5.864,13.56,10.384l-13.35,12.077c-4.803-5.79-10.631-8.687-17.479-8.687  c-4.026,0-7.612,0.884-10.754,2.648c-3.145,1.767-5.581,4.256-7.312,7.469c-1.731,3.215-2.595,6.905-2.595,11.072  c0,4.168,0.863,7.858,2.595,11.072c1.73,3.214,4.167,5.705,7.312,7.469c3.142,1.767,6.728,2.648,10.754,2.648  c6.849,0,12.677-2.896,17.479-8.687l13.35,12.076c-3.602,4.521-8.123,7.983-13.56,10.384c-5.44,2.4-11.55,3.603-18.33,3.603  C748.665,314.244,741.691,312.602,735.511,309.317z M744.517,337.129c-1.872-0.425-3.408-0.955-4.608-1.59l2.755-7.946  c2.118,0.988,4.307,1.483,6.568,1.483c3.531,0,5.298-0.99,5.298-2.967c0-1.767-1.59-2.648-4.768-2.648h-3.921l2.755-11.653h10.488  l-1.482,6.356c3.106,0.353,5.403,1.324,6.886,2.913c1.483,1.59,2.226,3.478,2.226,5.668c0,3.391-1.52,6.074-4.556,8.052  c-3.038,1.978-7.098,2.967-12.185,2.967C748.207,337.764,746.388,337.552,744.517,337.129z"></path>	<path fill="#FFFFFF" d="M846.067,298.352h-31.36l-5.827,14.409h-21.401l32.737-74.163h20.66l32.843,74.163h-21.825L846.067,298.352  z M833.724,232.188c-1.52-0.742-3.195-1.749-5.032-3.02c-1.342-0.917-2.349-1.553-3.02-1.907c-0.671-0.353-1.36-0.53-2.065-0.53  c-1.413,0-2.543,0.496-3.391,1.483c-0.848,0.99-1.343,2.367-1.482,4.132h-9.854c0.141-5.155,1.412-9.252,3.813-12.29  c2.4-3.037,5.616-4.555,9.642-4.555c1.906,0,3.602,0.354,5.085,1.058c1.484,0.708,3.18,1.697,5.086,2.967  c1.341,0.919,2.347,1.554,3.02,1.908c0.67,0.354,1.359,0.529,2.065,0.529c1.412,0,2.543-0.476,3.391-1.431  c0.848-0.952,1.342-2.24,1.483-3.867h9.853c-0.142,5.017-1.413,9.042-3.813,12.078c-2.402,3.038-5.615,4.556-9.642,4.556  C836.956,233.3,835.242,232.929,833.724,232.188z M839.923,282.884l-9.536-23.733l-9.535,23.733H839.923z"></path>	<path fill="#FFFFFF" d="M894.855,309.265c-6.251-3.32-11.161-7.91-14.727-13.773c-3.567-5.861-5.351-12.465-5.351-19.812  c0-7.345,1.783-13.948,5.351-19.812c3.565-5.863,8.476-10.453,14.727-13.774c6.25-3.318,13.296-4.979,21.136-4.979  c7.841,0,14.886,1.661,21.137,4.979c6.251,3.321,11.16,7.911,14.727,13.774c3.565,5.864,5.351,12.467,5.351,19.812  c0,7.347-1.785,13.951-5.351,19.812c-3.566,5.863-8.476,10.453-14.727,13.773c-6.251,3.319-13.296,4.979-21.137,4.979  C908.151,314.244,901.105,312.584,894.855,309.265z M926.162,294.22c3.037-1.764,5.438-4.255,7.205-7.469  c1.766-3.214,2.648-6.904,2.648-11.072c0-4.167-0.883-7.857-2.648-11.072c-1.767-3.212-4.168-5.702-7.205-7.469  c-3.037-1.764-6.428-2.648-10.171-2.648s-7.135,0.884-10.17,2.648c-3.038,1.767-5.439,4.256-7.205,7.469  c-1.766,3.215-2.648,6.905-2.648,11.072c0,4.168,0.883,7.858,2.648,11.072s4.167,5.705,7.205,7.469  c3.035,1.767,6.427,2.648,10.17,2.648S923.125,295.986,926.162,294.22z"></path></g><g>	<path fill="#FFFFFF" d="M829.963,140.211h23.099c5.636,0,10.644,1.096,15.021,3.284c4.379,2.189,7.775,5.285,10.191,9.286  c2.415,4,3.623,8.618,3.623,13.851c0,5.235-1.208,9.851-3.623,13.853c-2.416,4-5.813,7.095-10.191,9.285  c-4.378,2.189-9.386,3.284-15.021,3.284h-23.099V140.211z M852.608,184.75c3.875,0,7.285-0.742,10.229-2.227  c2.944-1.485,5.208-3.598,6.794-6.341c1.586-2.743,2.379-5.926,2.379-9.55c0-3.623-0.793-6.805-2.379-9.548  s-3.85-4.856-6.794-6.341c-2.943-1.484-6.354-2.227-10.229-2.227h-12.833v36.234H852.608z"></path>	<path fill="#FFFFFF" d="M925.831,180.824H899.41l-5.209,12.229h-10.115l23.778-52.842h9.662l23.854,52.842h-10.266L925.831,180.824  z M922.585,173.125l-9.965-23.1l-9.889,23.1H922.585z"></path></g></svg>